<svg preserveAspectRatio="none" width="100%" height="100%" overflow="visible" style="display: block;" viewBox="0 0 18 18" fill="none" xmlns="http://www.w3.org/2000/svg">
<g id="building-4">
<path id="Vector" d="M0.75 16.5H17.25" stroke="currentColor" stroke-width="1.5" stroke-miterlimit="10" stroke-linecap="round" stroke-linejoin="round"/>
<path id="Vector_2" d="M14.835 16.5075V13.1625" stroke="currentColor" stroke-width="1.5" stroke-miterlimit="10" stroke-linecap="round" stroke-linejoin="round"/>
<path id="Vector_3" d="M14.85 8.16751C13.935 8.16751 13.2 8.90252 13.2 9.81752V11.52C13.2 12.435 13.935 13.17 14.85 13.17C15.765 13.17 16.5 12.435 16.5 11.52V9.81752C16.5 8.90252 15.765 8.16751 14.85 8.16751Z" stroke="currentColor" stroke-width="1.5" stroke-miterlimit="10" stroke-linecap="round" stroke-linejoin="round"/>
<path id="Vector_4" d="M1.57498 16.5V4.52252C1.57498 3.01502 2.32502 2.25751 3.81752 2.25751H8.49001C9.98251 2.25751 10.725 3.01502 10.725 4.52252V16.5" stroke="currentColor" stroke-width="1.5" stroke-miterlimit="10" stroke-linecap="round" stroke-linejoin="round"/>
<path id="Vector_5" d="M4.34999 6.1875H8.0625" stroke="currentColor" stroke-width="1.5" stroke-miterlimit="10" stroke-linecap="round" stroke-linejoin="round"/>
<path id="Vector_6" d="M4.34999 9H8.0625" stroke="currentColor" stroke-width="1.5" stroke-miterlimit="10" stroke-linecap="round" stroke-linejoin="round"/>
<path id="Vector_7" d="M6.1875 16.5V13.6875" stroke="currentColor" stroke-width="1.5" stroke-miterlimit="10" stroke-linecap="round" stroke-linejoin="round"/>
<g id="Vector_8" opacity="0">
</g>
</g>
</svg>
