<svg preserveAspectRatio="none" width="100%" height="100%" overflow="visible" style="display: block;" viewBox="0 0 12.4419 13.8243" fill="none" xmlns="http://www.w3.org/2000/svg">
<g id="mynaui:edit" clip-path="url(#clip0_0_16)">
<path id="Vector" d="M0.691406 13.1717H11.7184M1.8396 7.75536C1.54574 8.05161 1.38067 8.45299 1.3806 8.87148V11.0919H3.60185C4.01812 11.0919 4.41716 10.9256 4.71145 10.6289L11.2587 4.03957C11.5525 3.74328 11.7175 3.3419 11.7175 2.92345C11.7175 2.505 11.5525 2.10362 11.2587 1.80733L10.6123 1.15568C10.4665 1.00896 10.2934 0.892577 10.1028 0.813196C9.91231 0.733815 9.70809 0.69299 9.50186 0.693054C9.29563 0.693119 9.09143 0.734071 8.90094 0.813571C8.71046 0.893071 8.53742 1.00956 8.39172 1.15637L1.8396 7.75536Z" stroke="currentColor" stroke-width="0.72973" stroke-linecap="round" stroke-linejoin="round"/>
</g>
<defs>
<clipPath id="clip0_0_16">
<rect width="12.4419" height="13.8243" fill="currentColor"/>
</clipPath>
</defs>
</svg>
