<svg preserveAspectRatio="none" width="100%" height="100%" overflow="visible" style="display: block;" viewBox="0 0 20.3368 20.3706" fill="none" xmlns="http://www.w3.org/2000/svg">
<g id="Edit Square">
<path id="Stroke 1" d="M9.492 0.7886H5.753C2.678 0.7886 0.75 2.9656 0.75 6.0476V14.3616C0.75 17.4436 2.669 19.6206 5.753 19.6206H14.577C17.662 19.6206 19.581 17.4436 19.581 14.3616V10.3336" stroke="currentColor" stroke-width="1.5" stroke-linecap="round" stroke-linejoin="round"/>
<path id="Stroke 3" fill-rule="evenodd" clip-rule="evenodd" d="M6.8275 8.9205L14.3005 1.4475C15.2315 0.5175 16.7405 0.5175 17.6715 1.4475L18.8885 2.6645C19.8195 3.5955 19.8195 5.1055 18.8885 6.0355L11.3795 13.5445C10.9725 13.9515 10.4205 14.1805 9.8445 14.1805H6.0985L6.1925 10.4005C6.2065 9.8445 6.4335 9.3145 6.8275 8.9205Z" stroke="currentColor" stroke-width="1.5" stroke-linecap="round" stroke-linejoin="round"/>
<path id="Stroke 5" d="M13.1649 2.6021L17.7309 7.1681" stroke="currentColor" stroke-width="1.5" stroke-linecap="round" stroke-linejoin="round"/>
</g>
</svg>
