<svg preserveAspectRatio="none" width="100%" height="100%" overflow="visible" style="display: block;" viewBox="0 0 17.2829 19.735" fill="none" xmlns="http://www.w3.org/2000/svg">
<g id="Group">
<path id="Vector" d="M3.06943 3.01343C4.55975 1.55292 6.56623 0.739562 8.65286 0.750101C10.7395 0.76064 12.7377 1.59423 14.2131 3.06971C15.6886 4.5452 16.5222 6.54337 16.5328 8.63C16.5433 10.7166 15.7299 12.7231 14.2694 14.2134L10.0834 18.3994C9.70837 18.7744 9.19976 18.985 8.66943 18.985C8.1391 18.985 7.63048 18.7744 7.25543 18.3994L3.06943 14.2134C1.58432 12.7282 0.75 10.7138 0.75 8.61343C0.75 6.51306 1.58432 4.4987 3.06943 3.01343Z" stroke="currentColor" stroke-width="1.5" stroke-linejoin="round"/>
<path id="Vector_2" d="M8.66943 11.6134C10.3263 11.6134 11.6694 10.2703 11.6694 8.61343C11.6694 6.95658 10.3263 5.61343 8.66943 5.61343C7.01257 5.61343 5.66943 6.95658 5.66943 8.61343C5.66943 10.2703 7.01257 11.6134 8.66943 11.6134Z" stroke="currentColor" stroke-width="1.5" stroke-linecap="round" stroke-linejoin="round"/>
</g>
</svg>
