<svg preserveAspectRatio="none" width="100%" height="100%" overflow="visible" style="display: block;" viewBox="0 0 15 15" fill="none" xmlns="http://www.w3.org/2000/svg">
<g id="si:bin-line">
<path id="Vector" d="M11.6919 5.07692V12.4385C11.6919 12.8424 11.5363 13.2298 11.2593 13.5154C10.9823 13.8011 10.6066 13.9615 10.2149 13.9615H4.5534C4.16169 13.9615 3.78603 13.8011 3.50905 13.5154C3.23208 13.2298 3.07647 12.8424 3.07647 12.4385V5.07692M9.8457 3.17307V2.03076C9.8457 1.61192 9.5134 1.26923 9.10724 1.26923H5.66109C5.25493 1.26923 4.92263 1.61192 4.92263 2.03076V3.17307M9.8457 3.17307H4.92263M9.8457 3.17307H12.9226M4.92263 3.17307H1.8457M7.38416 6.98076V10.7885M9.23032 6.98076V10.7885M5.53801 6.98076V10.7885" stroke="currentColor" stroke-width="0.852601" stroke-miterlimit="10" stroke-linecap="round" stroke-linejoin="round"/>
</g>
</svg>
