<svg preserveAspectRatio="none" width="100%" height="100%" overflow="visible" style="display: block;" viewBox="0 0 21.7726 16.7909" fill="none" xmlns="http://www.w3.org/2000/svg">
<g id="3 User">
<path id="Stroke 1" d="M16.8878 7.3968C18.2828 7.2008 19.3568 6.0048 19.3598 4.5558C19.3598 3.1278 18.3188 1.9438 16.9538 1.7198" stroke="currentColor" stroke-width="1.5" stroke-linecap="round" stroke-linejoin="round"/>
<path id="Stroke 3" d="M18.7286 10.7504C20.0796 10.9524 21.0226 11.4254 21.0226 12.4004C21.0226 13.0714 20.5786 13.5074 19.8606 13.7814" stroke="currentColor" stroke-width="1.5" stroke-linecap="round" stroke-linejoin="round"/>
<path id="Stroke 5" fill-rule="evenodd" clip-rule="evenodd" d="M10.8868 11.1639C7.6728 11.1639 4.9278 11.6509 4.9278 13.5959C4.9278 15.5399 7.6558 16.0409 10.8868 16.0409C14.1008 16.0409 16.8448 15.5589 16.8448 13.6129C16.8448 11.6669 14.1178 11.1639 10.8868 11.1639Z" stroke="currentColor" stroke-width="1.5" stroke-linecap="round" stroke-linejoin="round"/>
<path id="Stroke 7" fill-rule="evenodd" clip-rule="evenodd" d="M10.8868 8.388C12.9958 8.388 14.7058 6.679 14.7058 4.569C14.7058 2.46 12.9958 0.75 10.8868 0.75C8.7778 0.75 7.0678 2.46 7.0678 4.569C7.0598 6.671 8.7568 8.381 10.8588 8.388H10.8868Z" stroke="currentColor" stroke-width="1.5" stroke-linecap="round" stroke-linejoin="round"/>
<path id="Stroke 9" d="M4.8849 7.3968C3.4889 7.2008 2.4159 6.0048 2.4129 4.5558C2.4129 3.1278 3.4539 1.9438 4.8189 1.7198" stroke="currentColor" stroke-width="1.5" stroke-linecap="round" stroke-linejoin="round"/>
<path id="Stroke 11" d="M3.044 10.7504C1.693 10.9524 0.75 11.4254 0.75 12.4004C0.75 13.0714 1.194 13.5074 1.912 13.7814" stroke="currentColor" stroke-width="1.5" stroke-linecap="round" stroke-linejoin="round"/>
</g>
</svg>
