<svg preserveAspectRatio="none" width="100%" height="100%" overflow="visible" style="display: block;" viewBox="0 0 15.856 15.5004" fill="none" xmlns="http://www.w3.org/2000/svg">
<g id="Buy">
<path id="Stroke 1" d="M0.750123 0.750123L2.36418 1.02947L3.11145 9.9321C3.1712 10.6592 3.7788 11.2171 4.50823 11.2148H12.9735C13.6695 11.2163 14.2601 10.7042 14.3586 10.0151L15.095 4.92636C15.1773 4.35758 14.7823 3.82992 14.2143 3.74767C14.1646 3.74069 2.62336 3.73681 2.62336 3.73681" stroke="currentColor" stroke-width="1.5" stroke-linecap="round" stroke-linejoin="round"/>
<path id="Stroke 3" d="M9.57678 6.6049H11.7286" stroke="currentColor" stroke-width="1.5" stroke-linecap="round" stroke-linejoin="round"/>
<path id="Stroke 5" fill-rule="evenodd" clip-rule="evenodd" d="M4.16787 13.9054C4.40144 13.9054 4.59 14.0947 4.59 14.3275C4.59 14.5611 4.40144 14.7504 4.16787 14.7504C3.93429 14.7504 3.74573 14.5611 3.74573 14.3275C3.74573 14.0947 3.93429 13.9054 4.16787 13.9054Z" stroke="currentColor" stroke-width="1.5" stroke-linecap="round" stroke-linejoin="round"/>
<path id="Stroke 7" fill-rule="evenodd" clip-rule="evenodd" d="M12.9213 13.9054C13.1549 13.9054 13.3442 14.0947 13.3442 14.3275C13.3442 14.5611 13.1549 14.7504 12.9213 14.7504C12.6877 14.7504 12.4991 14.5611 12.4991 14.3275C12.4991 14.0947 12.6877 13.9054 12.9213 13.9054Z" stroke="currentColor" stroke-width="1.5" stroke-linecap="round" stroke-linejoin="round"/>
</g>
</svg>
