<svg preserveAspectRatio="none" width="100%" height="100%" overflow="visible" style="display: block;" viewBox="0 0 20 20" fill="none" xmlns="http://www.w3.org/2000/svg">
<g id="sun">
<path id="Vector" d="M10 15.4167C12.9915 15.4167 15.4167 12.9915 15.4167 10C15.4167 7.00846 12.9915 4.58333 10 4.58333C7.00846 4.58333 4.58333 7.00846 4.58333 10C4.58333 12.9915 7.00846 15.4167 10 15.4167Z" stroke="currentColor" stroke-width="1.5" stroke-linecap="round" stroke-linejoin="round"/>
<path id="Vector_2" d="M15.95 15.95L15.8417 15.8417M15.8417 4.15833L15.95 4.05L15.8417 4.15833ZM4.05 15.95L4.15833 15.8417L4.05 15.95ZM10 1.73333V1.66667V1.73333ZM10 18.3333V18.2667V18.3333ZM1.73333 10H1.66667H1.73333ZM18.3333 10H18.2667H18.3333ZM4.15833 4.15833L4.05 4.05L4.15833 4.15833Z" stroke="currentColor" stroke-width="2" stroke-linecap="round" stroke-linejoin="round"/>
<path id="Vector_3" opacity="0" d="M0.5 19.5L0.5 0.5L19.5 0.5L19.5 19.5L0.5 19.5Z" stroke="currentColor"/>
</g>
</svg>
