<svg preserveAspectRatio="none" width="100%" height="100%" overflow="visible" style="display: block;" viewBox="0 0 17.5 16.5" fill="none" xmlns="http://www.w3.org/2000/svg">
<path id="Vector" d="M4.75 8.75H10.75M8.75 15.75L5.75 12.75H3.75C2.95435 12.75 2.19129 12.4339 1.62868 11.8713C1.06607 11.3087 0.75 10.5456 0.75 9.75V3.75C0.75 2.95435 1.06607 2.19129 1.62868 1.62868C2.19129 1.06607 2.95435 0.75 3.75 0.75H13.75C14.5456 0.75 15.3087 1.06607 15.8713 1.62868C16.4339 2.19129 16.75 2.95435 16.75 3.75V9.75C16.75 10.5456 16.4339 11.3087 15.8713 11.8713C15.3087 12.4339 14.5456 12.75 13.75 12.75H11.75L8.75 15.75ZM4.75 4.75H12.75H4.75Z" stroke="currentColor" stroke-width="1.5" stroke-linecap="round" stroke-linejoin="round"/>
</svg>
