<svg preserveAspectRatio="none" width="100%" height="100%" overflow="visible" style="display: block;" viewBox="0 0 15.5 19.5" fill="none" xmlns="http://www.w3.org/2000/svg">
<g id="Group">
<path id="Vector" d="M12.75 8.75H2.75C1.64543 8.75 0.75 9.64543 0.75 10.75V16.75C0.75 17.8546 1.64543 18.75 2.75 18.75H12.75C13.8546 18.75 14.75 17.8546 14.75 16.75V10.75C14.75 9.64543 13.8546 8.75 12.75 8.75Z" stroke="currentColor" stroke-width="1.5" stroke-linecap="round" stroke-linejoin="round"/>
<path id="Vector_2" d="M7.75 14.75C8.30228 14.75 8.75 14.3023 8.75 13.75C8.75 13.1977 8.30228 12.75 7.75 12.75C7.19772 12.75 6.75 13.1977 6.75 13.75C6.75 14.3023 7.19772 14.75 7.75 14.75Z" stroke="currentColor" stroke-width="2" stroke-linecap="round" stroke-linejoin="round"/>
<path id="Vector_3" d="M3.75 8.75V4.75C3.75 3.68913 4.17143 2.67172 4.92157 1.92157C5.67172 1.17143 6.68913 0.75 7.75 0.75C8.81087 0.75 9.82828 1.17143 10.5784 1.92157C11.3286 2.67172 11.75 3.68913 11.75 4.75V8.75" stroke="currentColor" stroke-width="1.5" stroke-linecap="round" stroke-linejoin="round"/>
</g>
</svg>
