<svg preserveAspectRatio="none" width="100%" height="100%" overflow="visible" style="display: block;" viewBox="0 0 24 24" fill="none" xmlns="http://www.w3.org/2000/svg">
<g id="carbon:reminder-medical">
<path id="Vector" d="M20.25 9V10.5H21V13.5C21 14.0967 20.7629 14.669 20.341 15.091C19.919 15.5129 19.3467 15.75 18.75 15.75C18.1533 15.75 17.581 15.5129 17.159 15.091C16.7371 14.669 16.5 14.0967 16.5 13.5V10.5H17.25V9H15V13.5C15.0014 14.364 15.3005 15.2011 15.8469 15.8703C16.3934 16.5396 17.1538 17.0001 18 17.1743V18C18 18.7956 17.6839 19.5587 17.1213 20.1213C16.5587 20.6839 15.7956 21 15 21C14.2044 21 13.4413 20.6839 12.8787 20.1213C12.3161 19.5587 12 18.7956 12 18V16.362C12.5004 16.1851 12.9222 15.8369 13.1907 15.3791C13.4593 14.9213 13.5574 14.3833 13.4676 13.8602C13.3778 13.3371 13.106 12.8625 12.7002 12.5204C12.2944 12.1783 11.7808 11.9907 11.25 11.9907C10.7192 11.9907 10.2056 12.1783 9.79976 12.5204C9.39395 12.8625 9.12216 13.3371 9.0324 13.8602C8.94265 14.3833 9.04072 14.9213 9.30928 15.3791C9.57784 15.8369 9.99959 16.1851 10.5 16.362V18C10.5 19.1935 10.9741 20.3381 11.818 21.182C12.6619 22.0259 13.8065 22.5 15 22.5C16.1935 22.5 17.3381 22.0259 18.182 21.182C19.0259 20.3381 19.5 19.1935 19.5 18V17.1743C20.3463 17.0001 21.1066 16.5396 21.6531 15.8703C22.1995 15.2011 22.4986 14.364 22.5 13.5V9H20.25ZM11.25 13.5C11.3983 13.5 11.5433 13.544 11.6667 13.6264C11.79 13.7088 11.8861 13.8259 11.9429 13.963C11.9997 14.1 12.0145 14.2508 11.9856 14.3963C11.9567 14.5418 11.8852 14.6754 11.7803 14.7803C11.6754 14.8852 11.5418 14.9567 11.3963 14.9856C11.2508 15.0145 11.1 14.9997 10.963 14.9429C10.8259 14.8861 10.7088 14.79 10.6264 14.6667C10.544 14.5433 10.5 14.3983 10.5 14.25C10.5 14.0511 10.579 13.8603 10.7197 13.7197C10.8603 13.579 11.0511 13.5 11.25 13.5Z" fill="currentColor"/>
<path id="Vector_2" d="M19.5 3H16.5V1.5H15V3H9V1.5H7.5V3H4.5C4.10218 3 3.72064 3.15804 3.43934 3.43934C3.15804 3.72064 3 4.10218 3 4.5V19.5C3 19.8978 3.15804 20.2794 3.43934 20.5607C3.72064 20.842 4.10218 21 4.5 21H7.5V19.5H4.5V4.5H7.5V6H9V4.5H15V6H16.5V4.5H19.5V7.5H21V4.5C21 4.10218 20.842 3.72064 20.5607 3.43934C20.2794 3.15804 19.8978 3 19.5 3Z" fill="currentColor"/>
</g>
</svg>
