<svg preserveAspectRatio="none" width="100%" height="100%" overflow="visible" style="display: block;" viewBox="0 0 18.2824 18.2818" fill="none" xmlns="http://www.w3.org/2000/svg">
<g id="Blood sample">
<path id="Vector" d="M2.57458 1.56465C2.44063 1.56465 2.31217 1.61786 2.21746 1.71257C2.12274 1.80729 2.06953 1.93575 2.06953 2.0697V3.58485C2.06953 3.7188 2.12274 3.84726 2.21746 3.94198C2.31217 4.03669 2.44063 4.0899 2.57458 4.0899C2.70853 4.0899 2.83699 4.03669 2.93171 3.94198C3.02642 3.84726 3.07963 3.7188 3.07963 3.58485V2.0697C3.07963 1.93575 3.02642 1.80729 2.93171 1.71257C2.83699 1.61786 2.70853 1.56465 2.57458 1.56465Z" fill="currentColor" stroke="currentColor" stroke-width="0.1"/>
<path id="Vector_2" d="M4.59607 1.56465C4.46212 1.56465 4.33366 1.61786 4.23894 1.71257C4.14423 1.80729 4.09102 1.93575 4.09102 2.0697V3.58485C4.09102 3.7188 4.14423 3.84726 4.23894 3.94198C4.33366 4.03669 4.46212 4.0899 4.59607 4.0899C4.73001 4.0899 4.85848 4.03669 4.95319 3.94198C5.04791 3.84726 5.10112 3.7188 5.10112 3.58485V2.0697C5.10112 1.93575 5.04791 1.80729 4.95319 1.71257C4.85848 1.61786 4.73001 1.56465 4.59607 1.56465Z" fill="currentColor" stroke="currentColor" stroke-width="0.1"/>
<path id="Vector_3" d="M6.6156 1.56563C6.48165 1.56563 6.35319 1.61884 6.25847 1.71355C6.16376 1.80827 6.11055 1.93673 6.11055 2.07068V3.58583C6.11055 3.71977 6.16376 3.84824 6.25847 3.94295C6.35319 4.03767 6.48165 4.09088 6.6156 4.09088C6.74955 4.09088 6.87801 4.03767 6.97272 3.94295C7.06744 3.84824 7.12065 3.71977 7.12065 3.58583V2.07068C7.12065 1.93673 7.06744 1.80827 6.97272 1.71355C6.87801 1.61884 6.74955 1.56563 6.6156 1.56563Z" fill="currentColor" stroke="currentColor" stroke-width="0.1"/>
<path id="Vector_4" d="M0.55505 12.6763V14.1914C0.55505 15.263 0.980734 16.2907 1.73846 17.0484C2.49618 17.8061 3.52387 18.2318 4.59545 18.2318C5.66704 18.2318 6.69473 17.8061 7.45245 17.0484C8.21017 16.2907 8.63586 15.263 8.63586 14.1914V5.60556C8.76981 5.60556 8.89827 5.55235 8.99298 5.45763C9.0877 5.36291 9.14091 5.23445 9.14091 5.1005V0.55505C9.14091 0.421103 9.0877 0.292641 8.99298 0.197926C8.89827 0.103211 8.76981 0.05 8.63586 0.05H0.55505C0.421103 0.05 0.292641 0.103211 0.197926 0.197926C0.103211 0.292641 0.05 0.421103 0.05 0.55505V5.1005C0.05 5.23445 0.103211 5.36291 0.197926 5.45763C0.292641 5.55235 0.421103 5.60556 0.55505 5.60556V12.6763ZM1.56515 11.6662H4.0904C4.22435 11.6662 4.35281 11.613 4.44753 11.5182C4.54224 11.4235 4.59545 11.2951 4.59545 11.1611C4.59545 11.0272 4.54224 10.8987 4.44753 10.804C4.35281 10.7093 4.22435 10.6561 4.0904 10.6561H1.56515V10.151H4.0904C4.22435 10.151 4.35281 10.0978 4.44753 10.0031C4.54224 9.90837 4.59545 9.77991 4.59545 9.64596C4.59545 9.51201 4.54224 9.38355 4.44753 9.28883C4.35281 9.19412 4.22435 9.14091 4.0904 9.14091H1.56515V8.63586H5.60556V12.1712H1.56515V11.6662ZM1.0601 1.0601H8.13081V4.59545H1.0601V1.0601ZM7.62576 5.60556V14.1914C7.62576 14.9951 7.30649 15.7659 6.7382 16.3342C6.16991 16.9025 5.39914 17.2217 4.59545 17.2217C3.79177 17.2217 3.021 16.9025 2.45271 16.3342C1.88441 15.7659 1.56515 14.9951 1.56515 14.1914V13.1813H6.11061C6.24455 13.1813 6.37302 13.1281 6.46773 13.0334C6.56245 12.9387 6.61566 12.8102 6.61566 12.6763V8.13081C6.61566 7.99686 6.56245 7.8684 6.46773 7.77368C6.37302 7.67897 6.24455 7.62576 6.11061 7.62576H1.56515V5.60556H7.62576Z" fill="currentColor" stroke="currentColor" stroke-width="0.1"/>
<path id="Vector_5" d="M14.5506 2.46892C14.5036 2.42159 14.4477 2.38401 14.3862 2.35837C14.3247 2.33273 14.2586 2.31953 14.192 2.31953C14.1253 2.31953 14.0593 2.33273 13.9977 2.35837C13.9362 2.38401 13.8803 2.42159 13.8334 2.46892C13.6869 2.62044 10.1516 6.1962 10.1516 9.89822C10.1516 10.9698 10.5772 11.9975 11.335 12.7552C12.0927 13.5129 13.1204 13.9386 14.192 13.9386C15.2635 13.9386 16.2912 13.5129 17.049 12.7552C17.8067 11.9975 18.2324 10.9698 18.2324 9.89822C18.2324 6.1962 14.697 2.62044 14.5506 2.46892ZM14.192 12.9285C13.3883 12.9285 12.6175 12.6093 12.0492 12.041C11.4809 11.4727 11.1617 10.7019 11.1617 9.89822C11.1617 7.2669 13.3233 4.55478 14.192 3.56993C15.0607 4.55478 17.2223 7.26185 17.2223 9.89822C17.2223 10.7019 16.903 11.4727 16.3347 12.041C15.7664 12.6093 14.9957 12.9285 14.192 12.9285Z" fill="currentColor" stroke="currentColor" stroke-width="0.1"/>
<path id="Vector_6" d="M16.212 9.14091C16.078 9.14091 15.9496 9.19412 15.8548 9.28884C15.7601 9.38355 15.7069 9.51201 15.7069 9.64596C15.7069 10.0478 15.5473 10.4332 15.2631 10.7173C14.979 11.0015 14.5936 11.1611 14.1918 11.1611C14.0578 11.1611 13.9294 11.2143 13.8346 11.309C13.7399 11.4038 13.6867 11.5322 13.6867 11.6662C13.6867 11.8001 13.7399 11.9286 13.8346 12.0233C13.9294 12.118 14.0578 12.1712 14.1918 12.1712C14.8615 12.1712 15.5038 11.9052 15.9774 11.4316C16.451 10.958 16.717 10.3157 16.717 9.64596C16.717 9.51201 16.6638 9.38355 16.5691 9.28884C16.4744 9.19412 16.3459 9.14091 16.212 9.14091Z" fill="currentColor" stroke="currentColor" stroke-width="0.1"/>
</g>
</svg>
