<svg preserveAspectRatio="none" width="100%" height="100%" overflow="visible" style="display: block;" viewBox="0 0 33 10" fill="none" xmlns="http://www.w3.org/2000/svg">
<g id="Visa Inc. svg" clip-path="url(#clip0_0_19)">
<path id="path3789" d="M21.4891 0.0153996C19.1483 0.0153996 17.0565 1.14776 17.0565 3.23988C17.0565 5.63915 20.7664 5.80487 20.7664 7.01019C20.7664 7.5177 20.1433 7.97201 19.0789 7.97201C17.5684 7.97201 16.4395 7.33721 16.4395 7.33721L15.9564 9.44839C15.9564 9.44839 17.2569 9.9846 18.9836 9.9846C21.5428 9.9846 23.5566 8.79664 23.5566 6.66875C23.5566 4.13349 19.8312 3.9727 19.8312 2.85395C19.8312 2.45639 20.3428 2.02078 21.4041 2.02078C22.6016 2.02078 23.5785 2.48245 23.5785 2.48245L24.0513 0.443407C24.0513 0.443407 22.9883 0.0153996 21.4891 0.0153996V0.0153996ZM0.0731795 0.16929L0.0164998 0.47707C0.0164998 0.47707 1.00127 0.64528 1.88822 0.98082C3.03024 1.36559 3.11159 1.58958 3.30393 2.28528L5.39979 9.8259H8.2093L12.5376 0.16929H9.7345L6.95333 6.73487L5.81844 1.16958C5.71437 0.532633 5.18717 0.16929 4.54186 0.16929H0.0731795V0.16929ZM13.6647 0.16929L11.4658 9.8259H14.1388L16.33 0.16929H13.6647V0.16929ZM28.5728 0.16929C27.9282 0.16929 27.5867 0.491356 27.3361 1.05416L23.4201 9.8259H26.2232L26.7655 8.36394H30.1804L30.5102 9.8259H32.9835L30.8258 0.16929H28.5728V0.16929ZM28.9373 2.77821L29.7682 6.40184H27.5422L28.9373 2.77821V2.77821Z" fill="currentColor"/>
</g>
<defs>
<clipPath id="clip0_0_19">
<rect width="33" height="10" fill="currentColor"/>
</clipPath>
</defs>
</svg>
