<svg width="24" height="24" viewBox="0 0 24 24" fill="none" xmlns="http://www.w3.org/2000/svg">
<path fill-rule="evenodd" clip-rule="evenodd" d="M12.5099 8.796V10.493C12.8652 9.95168 13.3551 9.5119 13.9314 9.21671C14.5078 8.92152 15.1509 8.78103 15.7979 8.809C19.2529 8.809 19.9999 10.969 19.9999 13.779V19.5H16.7999V14.428C16.7999 13.218 16.5559 11.662 14.6719 11.662C12.8449 11.662 12.5329 12.979 12.5329 14.338V19.5H9.34287V8.796H12.5099ZM7.19987 6.106C7.19948 6.423 7.10551 6.73284 6.92975 6.99665C6.75399 7.26047 6.50426 7.46653 6.21187 7.589C5.9196 7.71048 5.59779 7.74226 5.2874 7.68029C4.97702 7.61832 4.69208 7.4654 4.46887 7.241C4.24524 7.01646 4.09298 6.73081 4.03126 6.41997C3.96954 6.10913 4.0011 5.78698 4.12198 5.49403C4.24286 5.20108 4.44766 4.95041 4.71062 4.77354C4.97358 4.59667 5.28297 4.5015 5.59987 4.5C5.81049 4.5 6.01904 4.54158 6.21355 4.62236C6.40807 4.70315 6.58472 4.82154 6.73337 4.97075C6.88202 5.11996 6.99975 5.29705 7.0798 5.49186C7.15986 5.68668 7.20066 5.89538 7.19987 6.106Z" fill="#2562A0"/>
<path d="M7.2 8.80859H4V19.4996H7.2V8.80859Z" fill="#2562A0"/>
</svg>
