<svg width="19" height="25" viewBox="0 0 19 25" fill="none" xmlns="http://www.w3.org/2000/svg">
<path d="M9.24935 0.25C6.56653 0.25 4.38365 2.47747 4.38365 5.21869C4.38365 7.9599 6.56644 10.1903 9.24935 10.1903C11.9323 10.1903 14.1179 7.95901 14.1179 5.21869C14.1179 2.47742 11.9323 0.25 9.24935 0.25ZM9.24935 0.999995C11.5375 0.999995 13.3841 2.88437 13.3841 5.21869C13.3841 7.55301 11.5375 9.44026 9.24935 9.44026C6.96123 9.44026 5.11644 7.55308 5.11644 5.21869C5.11644 2.88429 6.96214 0.999995 9.24935 0.999995ZM6.82119 10.9196C6.79096 10.9215 6.76074 10.9262 6.73143 10.9355C6.71952 10.9384 6.70761 10.9421 6.6957 10.9459C2.96213 12.0652 0.25 15.5807 0.25 19.7603V23.8731H0.250916C0.25 23.9734 0.288472 24.0691 0.358085 24.1403C0.426784 24.2106 0.52113 24.25 0.61823 24.25H17.8827C17.9798 24.25 18.0741 24.2106 18.1428 24.1403C18.2124 24.0691 18.2509 23.9734 18.25 23.8731V19.7603C18.25 15.5687 15.5212 12.0429 11.7693 10.9355C11.7657 10.9346 11.762 10.9346 11.7583 10.9337C11.7272 10.9252 11.6961 10.9215 11.664 10.9215C11.6567 10.9215 11.6503 10.9224 11.6429 10.9224C11.6118 10.9243 11.5797 10.9308 11.5495 10.9402C11.5431 10.943 11.5367 10.9458 11.5303 10.9496C11.5037 10.9599 11.4781 10.974 11.4552 10.9918C11.4487 10.9955 11.4423 11.0002 11.4359 11.0049C11.4213 11.0171 11.4066 11.0312 11.3938 11.0462L9.25131 13.5006L7.107 11.0462C7.09235 11.0293 7.07677 11.0143 7.05937 11.0002C7.05662 10.9983 7.05387 10.9965 7.05113 10.9946C7.02273 10.9721 6.99067 10.9543 6.95678 10.9421C6.95678 10.9412 6.95587 10.9412 6.95495 10.9412C6.92106 10.929 6.88533 10.9224 6.84961 10.9215H6.84137C6.83496 10.9205 6.8276 10.9205 6.82119 10.9196ZM6.71677 11.7221L8.88399 14.2083V23.4988H0.983733V19.7592C0.983733 15.9821 3.38441 12.8076 6.71677 11.7221ZM11.7839 11.7221C15.1163 12.8087 17.517 15.9821 17.517 19.7592V23.4988L9.61673 23.4998V14.2092L11.7839 11.7221ZM5.31615 15.7543C5.21906 15.7553 5.12563 15.7946 5.05784 15.8659C4.98914 15.9362 4.95067 16.0318 4.95158 16.1312V17.6396H3.47684C3.37975 17.6406 3.28723 17.68 3.21853 17.7503C3.14983 17.8215 3.11136 17.9171 3.11227 18.0165C3.11319 18.2218 3.27624 18.3887 3.47684 18.3896H4.95066V19.8981L4.95158 19.899C4.95066 19.9984 4.98914 20.094 5.05783 20.1643C5.12562 20.2347 5.21905 20.275 5.31615 20.275C5.41416 20.2759 5.50759 20.2356 5.57629 20.1653C5.64591 20.095 5.68438 19.9984 5.68438 19.899V18.3906H7.15821V18.3896C7.35972 18.3887 7.52277 18.2218 7.52277 18.0165C7.52369 17.9171 7.48521 17.8215 7.41652 17.7503C7.34874 17.68 7.2553 17.6406 7.1582 17.6396H5.68438V16.1312C5.68438 16.0309 5.64591 15.9353 5.57629 15.864C5.50759 15.7937 5.41417 15.7543 5.31615 15.7543Z" fill="#007EFF" stroke="#007EFF" stroke-width="0.5"/>
</svg>
