<svg width="25" height="24" viewBox="0 0 25 24" fill="none" xmlns="http://www.w3.org/2000/svg">
<path d="M16.6291 3.81884C16.9124 3.97315 17.0161 4.32528 16.8605 4.6062C16.7049 4.88712 16.3498 4.98997 16.0665 4.83567C15.8042 4.69324 15.5329 4.56268 15.2536 4.44894C14.9723 4.33321 14.69 4.23429 14.4067 4.15219C14.1513 4.079 13.9858 3.84656 13.9858 3.5963H13.9838V1.16107H10.2213V3.5963C10.2213 3.87821 10.0198 4.11264 9.7515 4.16604C9.48317 4.24517 9.21683 4.33914 8.95051 4.44894C8.6712 4.56367 8.4009 4.69325 8.13755 4.83567C7.90414 4.96228 7.62086 4.91579 7.44229 4.73775L7.44129 4.73874L5.70365 3.01567L3.0423 5.6547L4.77994 7.37777C4.97645 7.57262 5.00438 7.87331 4.86174 8.09786C4.72408 8.34811 4.59941 8.60726 4.48666 8.87334C4.36996 9.15228 4.27021 9.43219 4.18741 9.71311C4.1136 9.96633 3.88019 10.1305 3.62682 10.1305V10.1325H1.17099V13.8644H3.62682C3.91012 13.8644 4.14752 14.0642 4.20138 14.3303C4.28118 14.5954 4.37694 14.8605 4.48666 15.1245C4.60138 15.4015 4.73305 15.6695 4.87667 15.9297C5.00435 16.1611 4.95747 16.442 4.77792 16.6191L4.77892 16.6201L3.04128 18.3432L5.70263 20.9822L7.44027 19.2591C7.63677 19.0643 7.94001 19.0366 8.16646 19.178C8.41982 19.3145 8.68116 19.4382 8.94849 19.55C9.2298 19.6657 9.51207 19.7646 9.79537 19.8467C10.0507 19.9199 10.2163 20.1523 10.2163 20.4026H10.2183V22.8378H13.9807V20.4026C13.9807 20.1207 14.1832 19.8863 14.4516 19.8328C14.7189 19.7537 14.9862 19.6598 15.2526 19.55C15.5309 19.4362 15.8022 19.3056 16.0655 19.1632C16.3478 19.0089 16.7039 19.1118 16.8595 19.3927C17.0151 19.6736 16.9114 20.0267 16.6281 20.18C16.3289 20.3433 16.0196 20.4906 15.7014 20.6212C15.5239 20.6944 15.3413 20.7626 15.1548 20.8259V23.4184C15.1548 23.7389 14.8925 24 14.5683 24H9.63272C9.30954 24 9.04618 23.7399 9.04618 23.4184V20.8259C8.85965 20.7626 8.67711 20.6934 8.49956 20.6212C8.31902 20.547 8.14048 20.4669 7.96591 20.3818L6.11755 22.2147C5.88913 22.4412 5.51805 22.4412 5.28963 22.2147L1.80041 18.7547C1.57098 18.5272 1.57098 18.1603 1.80041 17.9338L3.64877 16.0999C3.56298 15.9268 3.48219 15.7507 3.40738 15.5707C3.33356 15.3947 3.26474 15.2137 3.2009 15.0277H0.586533C0.263351 15.0277 0 14.7676 0 14.4461V9.55192C0 9.23145 0.26233 8.97031 0.586533 8.97031H3.2009C3.26474 8.78534 3.33356 8.60434 3.40738 8.42827C3.48219 8.24924 3.56299 8.0722 3.64877 7.8991L1.80041 6.06525C1.57098 5.83874 1.57098 5.47078 1.80041 5.24427L5.28963 1.78432C5.51905 1.55781 5.88913 1.55781 6.11755 1.78432L7.96691 3.61817C8.14147 3.5331 8.32002 3.45298 8.50056 3.3788C8.67712 3.3056 8.86067 3.23735 9.04718 3.17405V0.581614C9.04718 0.261143 9.30951 0 9.63371 0H14.5693C14.8925 0 15.1558 0.26013 15.1558 0.581614V3.17405C15.3424 3.23735 15.5249 3.30659 15.7024 3.3788C16.0206 3.50936 16.3309 3.65774 16.6291 3.81995L16.6291 3.81884ZM22.8813 19.0643C22.2958 19.0643 21.7671 18.8289 21.3831 18.449C21.1337 18.2018 20.9452 17.8912 20.8444 17.544H14.7179C14.3947 17.544 14.1313 17.2839 14.1313 16.9624C14.1313 16.6419 14.3937 16.3808 14.7179 16.3808H20.8444C20.9452 16.0346 21.1327 15.724 21.3831 15.4757C21.7671 15.0949 22.2958 14.8605 22.8813 14.8605C23.4659 14.8605 23.9955 15.0949 24.3796 15.4757C24.7626 15.8555 25 16.3808 25 16.9614C25 17.542 24.7626 18.0662 24.3796 18.4471C23.9965 18.8269 23.4669 19.0623 22.8813 19.0623V19.0643ZM22.212 17.6271C22.3836 17.7972 22.62 17.902 22.8813 17.902C23.1426 17.902 23.3791 17.7962 23.5506 17.6271C23.7222 17.4569 23.8279 17.2225 23.8279 16.9634C23.8279 16.7042 23.7222 16.4688 23.5506 16.2997C23.3791 16.1305 23.1426 16.0247 22.8813 16.0247C22.619 16.0247 22.3826 16.1305 22.212 16.2997C22.0404 16.4698 21.9347 16.7042 21.9347 16.9634C21.9347 17.2225 22.0404 17.4569 22.212 17.6271ZM22.8813 6.09278C22.619 6.09278 22.3826 6.19862 22.212 6.36775C22.0404 6.53788 21.9347 6.77232 21.9347 7.03146C21.9347 7.29159 22.0404 7.52602 22.212 7.69516C22.3836 7.86431 22.62 7.97013 22.8813 7.97013C23.1426 7.97013 23.3791 7.8643 23.5506 7.69516C23.7222 7.52504 23.8279 7.2906 23.8279 7.03146C23.8279 6.77232 23.7222 6.53789 23.5506 6.36775C23.3791 6.19762 23.1426 6.09278 22.8813 6.09278ZM21.3831 5.5468C21.7671 5.16697 22.2958 4.93156 22.8813 4.93156C23.4659 4.93156 23.9955 5.16697 24.3796 5.5468C24.7626 5.92662 25 6.45184 25 7.03247C25 7.6131 24.7626 8.13733 24.3796 8.51814C23.9965 8.89896 23.4669 9.13339 22.8813 9.13339C22.2958 9.13339 21.7671 8.89896 21.3831 8.51814C21.1337 8.27086 20.9452 7.96028 20.8444 7.6131H14.7179C14.3947 7.6131 14.1313 7.35297 14.1313 7.03148C14.1313 6.71101 14.3937 6.44987 14.7179 6.44987H20.8444C20.9452 6.10367 21.1327 5.79308 21.3831 5.54482V5.5468ZM19.0579 11.0593C18.7956 11.0593 18.5592 11.1652 18.3886 11.3343C18.217 11.5044 18.1113 11.7389 18.1113 11.998C18.1113 12.2571 18.217 12.4916 18.3886 12.6617C18.5601 12.8318 18.7966 12.9367 19.0579 12.9367C19.3192 12.9367 19.5557 12.8308 19.7272 12.6617C19.8988 12.4916 20.0045 12.2571 20.0045 11.998C20.0045 11.7379 19.8988 11.5034 19.7272 11.3343C19.5557 11.1652 19.3192 11.0593 19.0579 11.0593ZM17.5597 10.5123C17.9437 10.1325 18.4724 9.89709 19.0579 9.89709C19.6424 9.89709 20.1721 10.1315 20.5561 10.5123C20.9392 10.8931 21.1766 11.4174 21.1766 11.998C21.1766 12.5776 20.9392 13.1029 20.5561 13.4837C20.1731 13.8635 19.6434 14.0989 19.0579 14.0989C18.4724 14.0989 17.9437 13.8635 17.5597 13.4837C17.3103 13.2354 17.1218 12.9258 17.021 12.5786H12.1013C11.7781 12.5786 11.5147 12.3185 11.5147 11.997C11.5147 11.6765 11.7771 11.4154 12.1013 11.4154H17.021C17.1218 11.0692 17.3093 10.7586 17.5597 10.5104V10.5123ZM11.8261 16.3829C12.1493 16.3829 12.4126 16.643 12.4126 16.9645C12.4126 17.285 12.1503 17.5461 11.8261 17.5461C10.282 17.5461 8.88258 16.926 7.8711 15.921C6.85866 14.917 6.23221 13.5313 6.23221 11.9992C6.23221 10.468 6.85863 9.08135 7.8711 8.07734C8.88357 7.07334 10.282 6.4522 11.8261 6.4522C12.1493 6.4522 12.4126 6.71233 12.4126 7.03381C12.4126 7.35428 12.1503 7.61543 11.8261 7.61543C10.6052 7.61543 9.49993 8.10603 8.7 8.9003C7.90001 9.69358 7.40525 10.7895 7.40525 12.0002C7.40525 13.2108 7.90001 14.3068 8.7 15.1001C9.49998 15.8933 10.6052 16.3849 11.8261 16.3849V16.3829Z" fill="#007EFF"/>
</svg>
