<svg width="18" height="25" viewBox="0 0 18 25" fill="none" xmlns="http://www.w3.org/2000/svg">
<g clip-path="url(#clip0_12_15974)">
<path d="M14.9181 3.67795C14.9201 3.6541 14.9191 3.6382 14.9171 3.61336C14.8551 2.75387 14.1168 2.08119 13.2363 2.08119H11.2274V1.8457C11.2274 0.936539 10.4718 0.197266 9.54252 0.197266H8.09834C7.16907 0.197266 6.41345 0.936513 6.41345 1.8457V2.08119H4.40458C3.5474 2.08119 2.82532 2.7191 2.72985 3.5458C1.29887 3.80811 0.154297 5.0581 0.154297 6.58526V21.1311C0.154297 22.8352 1.57106 24.2212 3.3127 24.2212H13.8466C15.5884 24.2212 17.005 22.8351 17.005 21.1311V6.58526C17.005 5.26572 16.1531 4.11223 14.9181 3.67795ZM4.40447 3.02414H6.89472C7.1608 3.02414 7.37613 2.8135 7.37613 2.55315V1.8457C7.37613 1.45621 7.7001 1.13924 8.09821 1.13924H9.5424C9.9405 1.13924 10.2645 1.45621 10.2645 1.8457V2.55216C10.2645 2.81248 10.4798 3.02315 10.7459 3.02315H13.2361C13.5906 3.02315 13.8912 3.27752 13.9491 3.61436C13.9328 3.67795 13.9785 3.49909 13.4413 5.60658C13.3336 6.02786 12.9497 6.321 12.5069 6.321H5.13376C4.69096 6.321 4.30705 6.0269 4.19939 5.60658L3.6916 3.61436C3.74847 3.27851 4.05002 3.02414 4.40447 3.02414ZM16.0423 21.1312C16.0423 22.3156 15.0572 23.2794 13.8466 23.2794H3.31268C2.1021 23.2794 1.11695 22.3156 1.11695 21.1312V6.58531C1.11695 5.53604 1.89693 4.65569 2.91863 4.47285C2.99886 4.78288 3.10957 5.21808 3.26495 5.83513C3.48025 6.67574 4.24803 7.26298 5.13365 7.26298H12.5058C13.3914 7.26298 14.1602 6.67574 14.3745 5.83513C14.5096 5.29856 14.6111 4.89912 14.6883 4.60103C15.4937 4.92693 16.0421 5.70296 16.0421 6.58531L16.0423 21.1312Z" fill="#007EFF"/>
<path d="M5.93209 4.90878H11.7099C11.976 4.90878 12.1913 4.69813 12.1913 4.43779C12.1913 4.17747 11.976 3.9668 11.7099 3.9668H5.93209C5.66601 3.9668 5.45068 4.17745 5.45068 4.43779C5.45068 4.69811 5.66599 4.90878 5.93209 4.90878Z" fill="#007EFF"/>
<path d="M7.13555 13.3866V14.7995C7.13555 15.0598 7.35086 15.2705 7.61696 15.2705H9.54253C9.80861 15.2705 10.0239 15.0599 10.0239 14.7995V13.3866H11.4681C11.7342 13.3866 11.9495 13.1759 11.9495 12.9156V11.0317C11.9495 10.7714 11.7342 10.5607 11.4681 10.5607H10.0239V9.14775C10.0239 8.88743 9.80862 8.67676 9.54253 8.67676H7.61696C7.35088 8.67676 7.13555 8.88741 7.13555 9.14775V10.5607H5.69137C5.42529 10.5607 5.20996 10.7713 5.20996 11.0317V12.9156C5.20996 13.1759 5.42527 13.3866 5.69137 13.3866H7.13555ZM6.17277 11.5027H7.61696C7.88304 11.5027 8.09836 11.292 8.09836 11.0317V9.61874H9.06115V11.0317C9.06115 11.292 9.27646 11.5027 9.54255 11.5027H10.9867V12.4446H9.54255C9.27648 12.4446 9.06115 12.6553 9.06115 12.9156V14.3286H8.09836V12.9156C8.09836 12.6553 7.88306 12.4446 7.61696 12.4446H6.17277V11.5027Z" fill="#007EFF"/>
<path d="M3.52433 16.6855H3.04293C2.77685 16.6855 2.56152 16.8962 2.56152 17.1565C2.56152 17.4169 2.77683 17.6275 3.04293 17.6275H3.52433C3.79041 17.6275 4.00574 17.4169 4.00574 17.1565C4.00574 16.8962 3.79043 16.6855 3.52433 16.6855Z" fill="#007EFF"/>
<path d="M14.1167 16.6855H5.93209C5.66601 16.6855 5.45068 16.8962 5.45068 17.1565C5.45068 17.4169 5.66599 17.6275 5.93209 17.6275H14.1167C14.3828 17.6275 14.5981 17.4169 14.5981 17.1565C14.5981 16.8962 14.3828 16.6855 14.1167 16.6855Z" fill="#007EFF"/>
<path d="M3.52433 18.5693H3.04293C2.77685 18.5693 2.56152 18.78 2.56152 19.0403C2.56152 19.3006 2.77683 19.5113 3.04293 19.5113H3.52433C3.79041 19.5113 4.00574 19.3007 4.00574 19.0403C4.00574 18.78 3.79043 18.5693 3.52433 18.5693Z" fill="#007EFF"/>
<path d="M14.1167 18.5693H5.93209C5.66601 18.5693 5.45068 18.78 5.45068 19.0403C5.45068 19.3006 5.66599 19.5113 5.93209 19.5113H14.1167C14.3828 19.5113 14.5981 19.3007 14.5981 19.0403C14.5981 18.78 14.3828 18.5693 14.1167 18.5693Z" fill="#007EFF"/>
<path d="M3.52433 20.4531H3.04293C2.77685 20.4531 2.56152 20.6638 2.56152 20.9241C2.56152 21.1844 2.77683 21.3951 3.04293 21.3951H3.52433C3.79041 21.3951 4.00574 21.1845 4.00574 20.9241C4.00574 20.6648 3.79043 20.4531 3.52433 20.4531Z" fill="#007EFF"/>
<path d="M14.1167 20.4531H5.93209C5.66601 20.4531 5.45068 20.6638 5.45068 20.9241C5.45068 21.1844 5.66599 21.3951 5.93209 21.3951H14.1167C14.3828 21.3951 14.5981 21.1845 14.5981 20.9241C14.5981 20.6648 14.3828 20.4531 14.1167 20.4531Z" fill="#007EFF"/>
</g>
<defs>
<clipPath id="clip0_12_15974">
<rect width="17.1596" height="24.4194" fill="white"/>
</clipPath>
</defs>
</svg>
