<svg width="24" height="24" viewBox="0 0 24 24" fill="none" xmlns="http://www.w3.org/2000/svg">
<path fill-rule="evenodd" clip-rule="evenodd" d="M11.4783 5.16522V8.38487C10.2757 8.55704 9.26191 9.31617 8.73548 10.3617L5.19861 9.18313C5.21113 9.08035 5.21739 8.97548 5.21739 8.86957C5.21739 7.42956 4.0487 6.26087 2.6087 6.26087C1.1687 6.26087 0 7.42956 0 8.86957C0 10.3096 1.1687 11.4783 2.6087 11.4783C3.57391 11.4783 4.41757 10.9529 4.86835 10.1729L8.40522 11.3515C8.36765 11.5623 8.34783 11.7788 8.34783 12C8.34783 12.8197 8.61861 13.5767 9.07565 14.1866L5.83878 17.4235C5.22887 16.9664 4.47183 16.6957 3.65217 16.6957C1.6367 16.6957 0 18.3323 0 20.3478C0 22.3633 1.6367 24 3.65217 24C5.66765 24 7.30435 22.3633 7.30435 20.3478C7.30435 19.5282 7.03357 18.7711 6.57652 18.1612L9.81339 14.9243C10.2913 15.2828 10.86 15.5264 11.4783 15.6151V17.7913C10.2882 18.0334 9.3913 19.0868 9.3913 20.3478C9.3913 21.7878 10.56 22.9565 12 22.9565C13.44 22.9565 14.6087 21.7878 14.6087 20.3478C14.6087 19.0868 13.7118 18.0334 12.5217 17.7913V15.6151C13.14 15.5264 13.7087 15.2828 14.1866 14.9243L17.4235 18.1612C16.9664 18.7711 16.6957 19.5282 16.6957 20.3478C16.6957 22.3633 18.3323 24 20.3478 24C22.3633 24 24 22.3633 24 20.3478C24 18.3323 22.3633 16.6957 20.3478 16.6957C19.5282 16.6957 18.7711 16.9664 18.1612 17.4235L14.9243 14.1866C15.3814 13.5767 15.6522 12.8197 15.6522 12C15.6522 11.7788 15.6323 11.5623 15.5948 11.3515L19.1317 10.1729C19.5824 10.9529 20.4261 11.4783 21.3913 11.4783C22.8313 11.4783 24 10.3096 24 8.86957C24 7.42956 22.8313 6.26087 21.3913 6.26087C19.9513 6.26087 18.7826 7.42956 18.7826 8.86957C18.7826 8.97548 18.7889 9.08035 18.8014 9.18313L15.2645 10.3617C14.7381 9.31617 13.7243 8.55704 12.5217 8.38487V5.16522C13.7118 4.92313 14.6087 3.86974 14.6087 2.6087C14.6087 1.1687 13.44 0 12 0C10.56 0 9.3913 1.1687 9.3913 2.6087C9.3913 3.86974 10.2882 4.92313 11.4783 5.16522ZM3.65217 17.7391C5.09217 17.7391 6.26087 18.9078 6.26087 20.3478C6.26087 21.7878 5.09217 22.9565 3.65217 22.9565C2.21217 22.9565 1.04348 21.7878 1.04348 20.3478C1.04348 18.9078 2.21217 17.7391 3.65217 17.7391ZM20.3478 17.7391C21.7878 17.7391 22.9565 18.9078 22.9565 20.3478C22.9565 21.7878 21.7878 22.9565 20.3478 22.9565C18.9078 22.9565 17.7391 21.7878 17.7391 20.3478C17.7391 18.9078 18.9078 17.7391 20.3478 17.7391ZM12 18.7826C12.864 18.7826 13.5652 19.4838 13.5652 20.3478C13.5652 21.2118 12.864 21.913 12 21.913C11.136 21.913 10.4348 21.2118 10.4348 20.3478C10.4348 19.4838 11.136 18.7826 12 18.7826ZM12 9.3913C13.44 9.3913 14.6087 10.56 14.6087 12C14.6087 13.44 13.44 14.6087 12 14.6087C10.56 14.6087 9.3913 13.44 9.3913 12C9.3913 10.56 10.56 9.3913 12 9.3913ZM2.6087 7.30435C3.4727 7.30435 4.17391 8.00556 4.17391 8.86957C4.17391 9.73357 3.4727 10.4348 2.6087 10.4348C1.7447 10.4348 1.04348 9.73357 1.04348 8.86957C1.04348 8.00556 1.7447 7.30435 2.6087 7.30435ZM21.3913 7.30435C22.2553 7.30435 22.9565 8.00556 22.9565 8.86957C22.9565 9.73357 22.2553 10.4348 21.3913 10.4348C20.5273 10.4348 19.8261 9.73357 19.8261 8.86957C19.8261 8.00556 20.5273 7.30435 21.3913 7.30435ZM12 1.04348C12.864 1.04348 13.5652 1.7447 13.5652 2.6087C13.5652 3.4727 12.864 4.17391 12 4.17391C11.136 4.17391 10.4348 3.4727 10.4348 2.6087C10.4348 1.7447 11.136 1.04348 12 1.04348Z" fill="#007EFF"/>
</svg>
